<svg id="Layer_1" data-name="Layer 1" xmlns="http://www.w3.org/2000/svg" viewBox="0 0 1366 768"><defs><style>.cls-1{fill:#a60a0a;}.cls-2,.cls-3{fill:#f0ebd2;}.cls-3,.cls-5,.cls-6{fill-rule:evenodd;}.cls-4{fill:#03658c;}.cls-5{fill:#870707;}.cls-6{fill:#990021;}</style></defs><title>Artboard 1</title><rect class="cls-1" x="489.01" y="0.46" width="387.55" height="767.54"/><rect class="cls-2" x="590.29" y="641.11" width="202.57" height="126.89"/><path class="cls-3" d="M718.73,201.19l-.56,6.7,2,4.56a10.59,10.59,0,0,1-.09,2.33c-.19.46-2.7,1.68-2.7,1.68s.47,2.7.66,3.44,1.39,4.93,1.67,5.87.93,4.65,1,5.21.09,3.72.09,3.72a26.17,26.17,0,0,1-1.58,3.35c-.33.28-1.16,1.54-1,2.09s1.77,5.21,1.86,5.54,1.59,3.12,1.59,3.12.93,4.42,1.12,4.7,2.42,5,2.42,5,2.37.56,2.47,1,.84,4.38.84,4.38l4.28,2.33,4.09,3.35S746,281.43,746.24,282a57.4,57.4,0,0,1,1.68,7.08c.28,1.86,2.7,10.52,2.79,11.26a49.33,49.33,0,0,0,1.86,4.84s8.84,7.82,10.15,9,3.63,2.42,3.81,3.26a22.66,22.66,0,0,0,1.77,3.44l14.06-19,33,18-3.91,4.84,1.39,2-6.61,10,3.17,4.56.93,3.44-1.59,3.35-2.89,5.58-4.19,7.07-3.82,6.33-2.7,2.33s-2.24,2-2.7,2-6.61.93-6.61.93v8l-1.31,8-3.16,15.08-3.54,8.75-6,3.54-4.28,1.3-4.65,4.65,4.65,41.52-.19,4.28-.93,3.54,2.33,20.95-.09,5.4-2.23,2.14-1.12,1.77.65,14.34-2.05,1.3-1.21,1.59.37,5.58-1.58.56.09,7.17,1.12,25.78-.74,2.6-5,4.56,4.47,54.18,2.79,4.66-148.76.19,1.68-3.54,6.14-3.17,3.17-3.54,5.77-12.66v-8.19l-.56-9.5-1.3-5,2.61-4.29-.93-8.38-.74-9.68-.93-10.61.37-14.71.93-14.52,1.68-6-1.49-5-.37-6.15,3.16-10.8.37-9.5-1.67-18.06-1.49-9.68L630,439l-3.36-11.54s.37-8.94.37-9.87S629.78,405,629.78,405l3.72-9.12,1.86-6.7-.93-3.82-4.65.28-4.66-1.67s-4.09-5.77-3.91-6.7.19-9.12.19-9.12l.93-8.38,3-10.43,4.1-8.94,4.47-8.57,1.68-5.4-1.68-6.89-4.1-5-3.17-5-2.8-2.79.19-4.28,3-5.77.19-3.35-1.86-2-.28-3.91.46-4,1.21-3.72-.93-3.26-3.91-3.26-2.38-1.12-2-1s-.56-2.28-.61-2.51-.09-2.7-.09-2.7l.89-2.14,2.61-3.07.84-1.07-.56-1.63-1.63-.38-4.42-1.35-3.12-1.21-1.67-4.65-1.4-7.54V231l3-9.22,3.26-5.77,2.14-4,4.19-7.35-.83-7.45-2.33-8.47-2.79-10.05-1.67-11.26S613,154.6,613,153.57s.28-11.92.28-11.92l-.84-4-.56-4-1.07-6.24-2.28-2.61-.23-4.47,1.07-3.3-1.07-4.51-1.63-4L605,105.26l-.61-5.17-.46-5.31-.75-4.19.56-4.28,2.14-2.51-2-1.58s-1.3-3.07-1.58-3.54a49.84,49.84,0,0,1-1-5.21l-2-1.4s-3.63-1.58-4.1-2.33-2-3.26-2-3.26l.09-2.89L594.41,60l1.21-3.63-3.17-3.91,2.42-2.14,4.75-1.3,5.87-.93,3.07-.65V43.21l-2.33-1.86-.56-6.42L608.75,31l2-3.26-1-3.91,1.4-1.12,2,1.58,2.79-1,1.68-2.89,1.77-1.3L621.13,21l.84-2.51,1.77-.93a20.2,20.2,0,0,1,1,2c.28.74.74,2.7.74,2.7l1.58-.65,1.21-2.33,2-.28.18,3.35-.93,4.28-1.12,6.14-.65,4.93-1.67,3.82-1.49,2-.19,3.54,1.86,1.77s2.42.28,3,.28S635.47,51,635.47,51l2.05.65.84,3.35-1.67,2-.19,3.07,2,3.07.19,3.35a13.14,13.14,0,0,1-1.86,3c-.65.46-2.23,2-3.16,2.23s-6,1.68-6,1.68l-1,2.89-.42,2.75-2,1.3,0,4.89a14.68,14.68,0,0,1,1.26,1.82c.09.33,1.91,4.1,2,4.47s1.07,2.61,1.07,2.61l2.42,8.57.1,7.82.28,17.5,1.77,11.36,5.12,18.71,3.35,21.78.52,5.48,24.43-.08c.3-.89,3.12-3.85,4.21-4.69L651.72,158l25.49,18.62c4.3-1.61,5.78-1.55,10.35-1.91L689,145.66l5.86,29a27.07,27.07,0,0,1,8.43,1.68l24.9-19.92c-6.2,7.84-12.39,15.51-18.59,23.35a41.79,41.79,0,0,1,3.92,4.48L747.42,177l-30.17,15.22,1,2.84L752.54,198l-33.81,3.2ZM648.16,197l16-.47-.15-5.2-21.4-2.24.06.57s4.33,4.11,4.47,4.47.58,1.64,1,2.87Zm3,5.18,4,9.73-.37,6.33,1.49,3.72,3.17,3.35,3.35-3,3.17-2.89.75-2.7-1.3-4.19s.74-2.23.84-2.79.19-3.63.19-3.63l-2.79-4.37C659.38,201.81,655.4,202.2,651.14,202.21Z"/><rect class="cls-2" x="595.58" y="621.53" width="188.5" height="21"/><path class="cls-4" d="M637,677.46v8.72h-3.65v14.6c0,10.89,2.43,13.19,6.76,13.19,4.12,0,6.83-1.62,6.83-13.26V686.39h-3.65v-8.93h20v8.72h-3.65v16.43c0,16-6.7,23.26-19.41,23.26-13.66-.41-21-7.57-21-22.92v-16.7h-3.79v-8.79Z"/><path class="cls-4" d="M668.26,707.68h12.58c0,5.68,5.68,6.62,8.52,6.76,2.37,0,5.75-.54,5.75-3.38,0-5.28-26-3-26-20.29,0-10,9.47-14.54,16.09-14.54,5.68,0,11.43,1.83,14.13,6.9l.68-5.68h11.63v17H699.43c0-5-3.92-7.84-8.66-7.84-2,0-4.67,1.22-4.67,3.58,0,7,26.78,5.34,26.78,21.23,0,10.55-9.87,14.33-17.92,14.33a18.23,18.23,0,0,1-14.13-6.22l-.74,5.2H668.26Z"/><path class="cls-4" d="M744.37,724.72v-8.86h6.43l-1.42-4.6H735.52l-1.42,4.6h5.28v8.86h-21.5v-8.86h4.6l9.13-29.68h-2.77v-8.72h26l12,38.4h4.73v8.86Zm2.5-21.57-4.46-14.61L738,703.15Z"/><polygon class="cls-3" points="750.38 63.53 759.75 90.88 788.66 91.35 765.54 108.71 774.03 136.35 750.38 119.73 726.72 136.35 735.21 108.71 712.1 91.35 741 90.88 750.38 63.53"/><polygon class="cls-3" points="819.8 20.81 827.88 44.37 852.78 44.77 832.86 59.73 840.18 83.54 819.8 69.22 799.42 83.54 806.74 59.73 786.83 44.77 811.73 44.37 819.8 20.81"/><polygon class="cls-3" points="818.88 92.54 824.99 110.38 843.85 110.68 828.77 122.01 834.31 140.04 818.88 129.2 803.45 140.04 808.99 122.01 793.91 110.68 812.76 110.38 818.88 92.54"/><path class="cls-5" d="M876.56,768V304.88L728.15,156.46c-6.2,7.84-12.39,15.51-18.59,23.35a41.79,41.79,0,0,1,3.92,4.48L747.42,177l-30.17,15.22,1,2.84L752.54,198l-33.81,3.2-.56,6.7,2,4.56a10.59,10.59,0,0,1-.09,2.33c-.19.46-2.7,1.68-2.7,1.68s.47,2.7.66,3.44,1.39,4.93,1.67,5.87.93,4.65,1,5.21.09,3.72.09,3.72a26.17,26.17,0,0,1-1.58,3.35c-.33.28-1.16,1.54-1,2.09s1.77,5.21,1.86,5.54,1.59,3.12,1.59,3.12.93,4.42,1.12,4.7,2.42,5,2.42,5,2.37.56,2.47,1l.84,4.38,4.28,2.33,4.09,3.35S746,281.43,746.24,282a57.4,57.4,0,0,1,1.68,7.08c.28,1.86,2.7,10.52,2.79,11.26a49.33,49.33,0,0,0,1.86,4.84s8.84,7.82,10.15,9,3.63,2.42,3.81,3.26a22.66,22.66,0,0,0,1.77,3.44l14.06-19,33,18-3.91,4.84,1.39,2-6.61,10,3.17,4.56.93,3.44-1.59,3.35-2.89,5.58-4.19,7.07-3.82,6.33-2.7,2.33s-2.24,2-2.7,2-6.61.93-6.61.93v8l-1.31,8-3.16,15.08-3.54,8.75-6,3.54-4.28,1.3-4.65,4.65,4.65,41.52-.19,4.28-.93,3.54,2.33,20.95-.09,5.4-2.23,2.14-1.12,1.77.65,14.34-2.05,1.3-1.21,1.59.37,5.58-1.58.56.09,7.17,1.12,25.78-.74,2.6-5,4.56,4.47,54.18,1.59,2.65h21.07v19.58h8.78V768Z"/><path class="cls-6" d="M666,219.49l.75-2.7-1.3-4.19s.74-2.23.84-2.79.19-3.63.19-3.63l-2.79-4.37c-4.25,0-8.24.4-12.49.42l4,9.73-.37,6.33,1.49,3.72,3.17,3.35,3.35-3Z"/><path class="cls-6" d="M648.16,197l16-.47-.15-5.2-21.4-2.24.06.57s4.33,4.11,4.47,4.47Z"/><polygon class="cls-5" points="876.56 134.51 876.56 68.56 852.78 44.77 832.86 59.73 840.18 83.54 819.8 69.22 814.79 72.74 876.56 134.51"/><polygon class="cls-6" points="836.91 110.57 818.88 92.54 824.99 110.38 836.91 110.57"/><path class="cls-5" d="M876.56,189.72V143.4l-32.72-32.72-3.9,2.93L828.77,122l5.54,18L818.88,129.2l-1.67,1.17L803.45,140,809,122.11l-.5-.5-14.55-10.93,3.56-.06L782.68,95.84l-17.14,12.87L774,136.35l-23.66-16.62-11.4,8-12.26,8.61,4.91-16L630.26,19l.18,3.35-.93,4.28-1.12,6.14-.65,4.93-1.67,3.82-1.49,2-.19,3.54,1.86,1.77s2.42.28,3,.28S635.47,51,635.47,51l2.05.65.84,3.35-1.67,2-.19,3.07,2,3.07.19,3.35a13.14,13.14,0,0,1-1.86,3c-.65.46-2.23,2-3.16,2.23s-6,1.68-6,1.68l-1,2.89-.42,2.75-2,1.3,0,4.89a14.68,14.68,0,0,1,1.26,1.82c.09.33,1.91,4.1,2,4.47s1.07,2.61,1.07,2.61l2.42,8.57.1,7.82.28,17.5,1.77,11.36,5.12,18.71,3.35,21.78.52,5.48,24.43-.08c.3-.89,3.12-3.85,4.21-4.69L651.72,158l25.49,18.62c4.3-1.61,5.78-1.55,10.35-1.91L689,145.66l5.86,29a27.07,27.07,0,0,1,8.43,1.68l24.9-19.92L876.56,304.88V189.72Z"/><polygon class="cls-6" points="805.57 63.52 806.74 59.73 786.83 44.77 805.57 63.52"/><polygon class="cls-6" points="778.02 91.17 750.38 63.53 759.75 90.88 778.02 91.17"/></svg>